<?xml version="1.0" encoding="UTF-8"?>
<svg width="150px" height="154px" viewBox="0 0 150 154" version="1.1" xmlns="http://www.w3.org/2000/svg" xmlns:xlink="http://www.w3.org/1999/xlink">
    <title>Logo</title>
    <g id="Login" stroke="none" stroke-width="1" fill="none" fill-rule="evenodd">
        <g id="Start" transform="translate(-113.000000, -134.000000)" fill="#FFFFFF">
            <g id="Logo" transform="translate(113.000000, 134.000000)">
                <g id="Group-2" transform="translate(27.669903, 0.000000)">
                    <path d="M70.8474733,23.5593841 C70.8474733,10.5478657 60.2919766,0 47.2711458,0 L46.3233984,0 L45.375651,0 C32.3548202,0 21.7992226,10.5478657 21.7992226,23.5593841 L29.1541544,23.5593841 C28.8936046,21.2938764 30.0448876,17.2869116 30.7049404,16.3418661 C33.3769383,10.940828 38.9494955,7.21751803 45.375651,7.21751803 L46.3233984,7.21751803 L47.2711458,7.21751803 C53.6974022,7.21751803 59.2699594,10.940828 61.9418564,16.3418661 C62.6019092,17.2869116 63.7531922,21.2938764 63.4926424,23.5593841 L70.8474733,23.5593841 Z" id="Fill-1"></path>
                    <path d="M84.7596411,74.4686184 C84.7596411,86.3685983 74.9280733,96.0497967 62.8433635,96.0497967 L62.8433635,96.0497967 L27.9868018,96.0497967 C15.902092,96.0497967 6.07052423,86.3685983 6.07052423,74.4686184 L6.07052423,74.4686184 L6.07052423,36.2856538 C6.07052423,29.3589466 1.42108547e-14,27.1839047 1.42108547e-14,27.1839047 L1.42108547e-14,27.1839047 L24.6788113,27.1839047 C52.7178767,30.5351004 41.4831381,72.8958989 59.6087255,57.6751203 C55.4971184,65.6168672 50.419297,71.1681847 43.862813,73.0610259 C37.8709307,74.5734891 34.6395142,65.9510833 31.5824441,57.2917279 L31.0545801,55.7945633 C28.4189986,48.3262864 25.8022495,41.2666211 21.5283247,41.1598102 L21.5283247,41.1598102 L21.5283247,83.2326897 C15.1588894,83.2326897 9.69097567,79.4381792 7.32403563,74.0204881 L7.32403563,74.0204881 L7.32403563,74.4686184 C7.32403563,85.6879259 16.5933368,94.8154572 27.9868018,94.8154572 L27.9868018,94.8154572 L62.8433635,94.8154572 C74.2368286,94.8154572 83.5061297,85.6879259 83.5061297,74.4686184 L83.5061297,74.4686184 L83.5074738,74.0223436 C81.1403102,79.4396306 75.6709309,83.2326897 69.3017693,83.2326897 L69.3017693,83.2326897 L69.3017693,41.1598102 C65.2199107,41.2618358 62.6497233,47.7064042 60.1309845,54.7913164 C51.2271211,61.8567665 49.7741319,54.1835767 46.6056129,44.6738255 C49.6176467,36.7289687 54.4826442,28.5785559 66.1512827,27.1839047 L66.1512827,27.1839047 L90.830094,27.1839047 C90.830094,27.1839047 84.7595698,29.3589466 84.7595698,36.2856538 L84.7595698,36.2856538 Z" id="Combined-Shape"></path>
                </g>
                <path d="M7.11070388,153.482554 L7.11070388,132.267253 C7.11070388,132.267253 8.38047243,134.440527 10.0565669,136.872525 L17.2688523,147.324942 L24.4303469,136.92427 C26.1572321,134.388783 27.4270007,132.267253 27.4270007,132.267253 L27.4270007,153.482554 L34.5377046,153.482554 L34.5377046,119.952029 L28.3920248,119.952029 L23.2113691,127.455001 C21.3321116,130.197467 17.2688523,136.096356 17.2688523,136.096356 L17.2492127,136.067238 C17.0548896,135.779172 15.4497676,133.400675 13.8326008,131.033658 L13.5094213,130.56103 C12.7031432,129.382958 11.9171666,128.242787 11.3263355,127.403257 L6.14567978,119.952029 L0,119.952029 L0,153.482554 L7.11070388,153.482554 Z M51.7079631,154 C54.6538262,154 57.8536429,152.861618 59.6313189,150.377875 L59.6313189,153.482554 L66.2849061,153.482554 L66.2849061,127.610235 L59.6313189,127.610235 L59.6313189,130.766658 C57.8028522,128.282915 54.6538262,127.092789 51.7079631,127.092789 C44.6988407,127.092789 40.2292554,133.095167 40.2292554,140.546394 C40.2292554,147.997622 44.6988407,154 51.7079631,154 Z M53.4348484,147.583665 C49.7779149,147.583665 47.1367964,144.634221 47.1367964,140.546394 C47.1367964,136.510313 49.7779149,133.509124 53.4348484,133.509124 C56.9394096,133.509124 59.4789467,136.510313 59.4789467,140.546394 C59.4789467,144.685965 56.9394096,147.583665 53.4348484,147.583665 Z M78.8839979,153.482554 L78.8839979,143.547583 C78.8839979,137.389972 81.7790702,134.647506 87.6707963,134.647506 L87.6707963,127.092789 C82.0838146,127.092789 79.4934868,130.45619 78.7824164,132.57772 L78.7824164,127.610235 L72.0780385,127.610235 L72.0780385,153.482554 L78.8839979,153.482554 Z M95.3431861,124.453812 C97.5779787,124.453812 99.4064454,122.591005 99.4064454,120.365986 C99.4064454,118.089222 97.5779787,116.226415 95.3431861,116.226415 C93.1591842,116.226415 91.3307174,118.089222 91.3307174,120.365986 C91.3307174,122.591005 93.1591842,124.453812 95.3431861,124.453812 Z M98.7969565,153.482554 L98.7969565,127.610235 L91.9909971,127.610235 L91.9909971,153.482554 L98.7969565,153.482554 Z M117.744891,154 C121.046289,154 124.347688,153.068597 127.191969,151.154045 L124.652432,146.18656 C122.773175,147.480176 120.233637,148.204601 117.795682,148.204601 C114.443493,148.204601 111.548421,146.497028 110.735769,142.926648 L129.172808,142.926648 C129.172808,142.926648 129.32518,141.684776 129.32518,140.442905 C129.32518,133.095167 123.890571,127.092789 116.98303,127.092789 C109.516791,127.092789 103.828228,133.095167 103.828228,140.546394 C103.828228,149.084259 110.329443,154 117.744891,154 Z M122.925547,138.321375 L110.634187,138.321375 C111.294467,135.061463 113.834004,132.888188 116.779867,132.888188 C119.878102,132.888188 122.417639,135.061463 122.925547,138.321375 Z M141.213202,153.482554 L141.213202,143.547583 C141.213202,137.389972 144.108274,134.647506 150,134.647506 L150,127.092789 C144.413018,127.092789 141.822691,130.45619 141.11162,132.57772 L141.11162,127.610235 L134.407242,127.610235 L134.407242,153.482554 L141.213202,153.482554 Z" id="Marier" fill-rule="nonzero"></path>
            </g>
        </g>
    </g>
</svg>