<?xml version="1.0" encoding="UTF-8"?>
<svg width="217px" height="204px" viewBox="0 0 217 204" version="1.1" xmlns="http://www.w3.org/2000/svg" xmlns:xlink="http://www.w3.org/1999/xlink">
    <title>icon_cart</title>
    <g id="Payment" stroke="none" stroke-width="1" fill="none" fill-rule="evenodd">
        <g id="Payment-/-Shopping-Bag---Empty" transform="translate(-79.000000, -234.000000)">
            <g id="icon_cart" transform="translate(79.000000, 234.000000)">
                <g id="shopping-online" transform="translate(69.000000, 75.000000)" fill="#CCCED0" fill-rule="nonzero">
                    <path d="M10.0641186,7.61430363 L0.959910438,3.03045654 C0.173680319,2.63569637 -0.145044781,1.67475887 0.248381514,0.884613117 C0.641185339,0.0944672031 1.59736064,-0.225845297 2.3835906,0.169540445 L12.0903885,5.05618278 C12.5871514,5.25575252 12.9724851,5.70181266 13.0714642,6.27111816 L15.1842629,18.2259063 L54.6650897,18.2259063 C55.5478088,18.2259063 56.2636953,18.9453583 56.2636953,19.8324737 C56.2636953,20.7195893 55.5478088,21.4384155 54.6650897,21.4384155 L15.7526145,21.4384155 L22.3798556,58.9299927 L27.5261453,58.9299927 C28.4088645,58.9299927 29.1247509,59.6488189 29.1247509,60.5365601 C29.1247509,61.4236756 28.4088645,62.1425019 27.5261453,62.1425019 L22.9475847,62.1425019 L23.7674303,66.7789002 C25.7488795,66.8508453 27.5361055,67.6872863 28.8464891,69.0041962 C29.8574453,70.0201874 30.5845369,71.3227081 30.8957919,72.7803803 L57.8081425,72.7803803 C58.1200199,71.3227081 58.8471116,70.0201874 59.8580677,69.0041962 C61.2288347,67.6259766 63.1231324,66.7738953 65.2147659,66.7738953 C67.3063994,66.7738953 69.2000747,67.6259766 70.5708416,69.0041962 C71.9416086,70.3817901 72.7894671,72.2848969 72.7894671,74.3869477 C72.7894671,76.4889985 71.9416086,78.3927306 70.5708416,79.7696991 C69.2000747,81.1479188 67.3063994,82 65.2147659,82 C63.1231324,82 61.2288347,81.1479188 59.8580677,79.7696991 C58.8464891,78.7530822 58.1200199,77.4505615 57.8081425,75.9935151 L30.8957919,75.9935151 C30.5839143,77.4505615 29.8574453,78.7530822 28.8458665,79.7696991 C27.4750996,81.1479188 25.5814244,82 23.4897909,82 C21.3981575,82 19.5038596,81.1479188 18.1330926,79.7696991 C16.7623257,78.3921051 15.9144671,76.4889985 15.9144671,74.3869477 C15.9144671,72.2848969 16.7623257,70.3817901 18.1330926,69.0041962 C18.839019,68.294754 19.6831425,67.7248231 20.621265,67.3388214 C17.1028386,47.4306488 13.5837898,27.5224762 10.0641186,7.61430363 Z M40.313745,62.1425019 L67.464517,62.1425019 C69.4154631,62.1425019 71.0346116,61.3704986 72.2734064,60.1255341 C73.5638695,58.8286437 74.4123506,57.0168761 74.757221,55.0643463 L79.8200947,26.4207764 C79.8798556,26.0829468 79.9091136,25.7482452 79.9091136,25.4179229 C79.9091136,23.7131348 79.1571216,22.0696563 77.9905378,20.7896576 C76.8513447,19.5396881 75.2975598,18.6206665 73.6578685,18.3278809 C73.282495,18.2609405 72.9046314,18.2259063 72.5280129,18.2259063 L67.4526892,18.2259063 C66.56997,18.2259063 65.8540837,18.9447326 65.8540837,19.8318481 C65.8540837,20.7189637 66.56997,21.4384155 67.4526892,21.4384155 L72.5280129,21.4384155 C72.7234811,21.4384155 72.9177042,21.4559326 73.1088147,21.4903412 C74.0550298,21.6592559 74.964517,22.203537 75.6424303,22.9480133 C76.2929531,23.6612091 76.7119025,24.5420684 76.7119025,25.4179229 C76.7119025,25.5711974 76.6994521,25.7219696 76.6733068,25.8689881 L71.6104333,54.512558 C71.376992,55.8338471 70.8304284,57.0325165 70.0130727,57.8539429 C69.3525896,58.5177154 68.4941484,58.9293671 67.464517,58.9293671 L40.313745,58.9293671 C39.431026,58.9293671 38.7151394,59.6488189 38.7151394,60.5359345 C38.7151394,61.4236756 39.431026,62.1425019 40.313745,62.1425019 L40.313745,62.1425019 Z M33.9199452,58.9299927 C33.0372261,58.9299927 32.3213396,59.6488189 32.3213396,60.5359345 C32.3213396,61.4230499 33.0372261,62.1425019 33.9199452,62.1425019 C34.8026644,62.1425019 35.5185508,61.4230499 35.5185508,60.5359345 C35.5185508,59.6488189 34.8026644,58.9299927 33.9199452,58.9299927 Z M61.0588894,18.2259063 C60.1761704,18.2259063 59.4609065,18.9447326 59.4609065,19.8318481 C59.4609065,20.7195893 60.1761704,21.4384155 61.0588894,21.4384155 C61.9416086,21.4384155 62.657495,20.7195893 62.657495,19.8318481 C62.657495,18.9447326 61.9416086,18.2259063 61.0588894,18.2259063 Z M32.4906623,28.5378418 C30.7127739,30.3239594 29.8244523,32.6775055 29.8244523,35.0291748 C29.8244523,37.3808442 30.7127739,39.7337646 32.4906623,41.5205078 L44.9483316,54.0395966 C45.5720867,54.6670838 46.5842878,54.6670838 47.2086653,54.0395966 L59.6663347,41.5205078 C61.4436006,39.7337646 62.3325449,37.3808442 62.3325449,35.0291748 C62.3325449,32.6768799 61.4442231,30.3239594 59.6663347,28.5378418 C57.8884462,26.7510986 55.5471863,25.8577271 53.2071713,25.8577271 C50.8665339,25.8577271 48.5252739,26.7510986 46.748008,28.5378418 L46.0788097,29.210373 L45.408989,28.5378418 C43.631723,26.7510986 41.2904631,25.8577271 38.9498257,25.8577271 C36.6098107,25.8577271 34.2685508,26.7510986 32.4906623,28.5378418 L32.4906623,28.5378418 Z M38.9498257,29.0708618 C37.4265437,29.0708618 35.9038845,29.6501769 34.750996,30.8088075 C33.5974851,31.9680634 33.0210408,33.4976807 33.0210408,35.0291748 C33.0210408,36.5600434 33.5974851,38.0896606 34.750996,39.2489166 L46.0781873,50.6325225 L57.406001,39.2489166 C58.5588894,38.0896606 59.1353337,36.5600434 59.1353337,35.0291748 C59.1353337,33.4976807 58.5588894,31.9680634 57.406001,30.8088075 C56.25249,29.6501769 54.7304532,29.0708618 53.2065488,29.0708618 C51.6832669,29.0708618 50.1612301,29.6501769 49.0077192,30.8088075 L47.2080429,32.6174469 C46.5842878,33.2449341 45.5720867,33.2449341 44.9477092,32.6174469 L43.1486553,30.8088075 C41.995767,29.6501769 40.4731076,29.0708618 38.9498257,29.0708618 L38.9498257,29.0708618 Z M68.310508,71.2751617 C67.5186754,70.4787598 66.4236803,69.9864044 65.2147659,69.9864044 C64.005229,69.9864044 62.9108566,70.4787598 62.1184014,71.2751617 C61.3259461,72.0715636 60.8360309,73.1713867 60.8360309,74.3869477 C60.8360309,75.6025086 61.3259461,76.7023315 62.1184014,77.4987335 C62.9108566,78.2945098 64.005229,78.7874908 65.2147659,78.7874908 C66.4236803,78.7874908 67.5186754,78.2945098 68.310508,77.4987335 C69.1029632,76.7023315 69.5928784,75.6025086 69.5928784,74.3869477 C69.5928784,73.1713867 69.1029632,72.0715636 68.310508,71.2751617 Z M26.5855329,71.2751617 C25.7937002,70.4787598 24.6987052,69.9864044 23.4897909,69.9864044 C22.280254,69.9864044 21.185259,70.4787598 20.3928038,71.2751617 C19.6009712,72.0715636 19.1110558,73.1713867 19.1110558,74.3869477 C19.1110558,75.6025086 19.6009712,76.7023315 20.3928038,77.4987335 C21.185259,78.2945098 22.280254,78.7874908 23.4897909,78.7874908 C24.6987052,78.7874908 25.7937002,78.2945098 26.5855329,77.4987335 C27.377988,76.7023315 27.8679034,75.6025086 27.8679034,74.3869477 C27.8679034,73.1713867 27.377988,72.0715636 26.5855329,71.2751617 Z" id="Shape"></path>
                </g>
                <path d="M108.5,203 C156.824916,203 196,163.824916 196,115.5 C196,67.1750844 156.824916,28 108.5,28 C60.1750844,28 21,67.1750844 21,115.5 C21,163.824916 60.1750844,203 108.5,203 Z" id="Oval" stroke="#CCCED0" stroke-width="2" stroke-dasharray="5"></path>
                <polygon id="Star" fill="#CCCED0" points="147.5 60.25 144.267181 61.9495935 144.884595 58.3497967 142.269189 55.8004065 145.883591 55.2752033 147.5 52 149.116409 55.2752033 152.730811 55.8004065 150.115405 58.3497967 150.732819 61.9495935"></polygon>
                <polygon id="Star-Copy-6" fill="#CCCED0" points="211.5 72.1995935 208.267181 73.8991869 208.884595 70.2993902 206.269189 67.75 209.883591 67.2247967 211.5 63.9495935 213.116409 67.2247967 216.730811 67.75 214.115405 70.2993902 214.732819 73.8991869"></polygon>
                <polygon id="Star-Copy-2" fill="#CCCED0" points="178.5 124.25 175.267181 125.949593 175.884595 122.349797 173.269189 119.800407 176.883591 119.275203 178.5 116 180.116409 119.275203 183.730811 119.800407 181.115405 122.349797 181.732819 125.949593"></polygon>
                <polygon id="Star-Copy-4" fill="#CCCED0" points="39.2308108 134.25 35.997992 135.949593 36.6154054 132.349797 34 129.800407 37.6144014 129.275203 39.2308108 126 40.8472203 129.275203 44.4616217 129.800407 41.8462163 132.349797 42.4636297 135.949593"></polygon>
                <polygon id="Star-Copy" fill="#CCCED0" points="5.5 50.25 2.26718111 51.9495935 2.88459458 48.3497967 0.26918916 45.8004065 3.88359056 45.2752033 5.5 42 7.11640944 45.2752033 10.7308108 45.8004065 8.11540542 48.3497967 8.73281889 51.9495935"></polygon>
                <polygon id="Star-Copy-3" fill="#CCCED0" points="118.5 8.25 115.267181 9.94959347 115.884595 6.34979673 113.269189 3.80040653 116.883591 3.27520327 118.5 0 120.116409 3.27520327 123.730811 3.80040653 121.115405 6.34979673 121.732819 9.94959347"></polygon>
            </g>
        </g>
    </g>
</svg>