<?xml version="1.0" encoding="UTF-8"?>
<svg width="692px" height="921px" viewBox="0 0 692 921" version="1.1" xmlns="http://www.w3.org/2000/svg" xmlns:xlink="http://www.w3.org/1999/xlink">
    <title>Background</title>
    <g id="Login" stroke="none" stroke-width="1" fill="none" fill-rule="evenodd">
        <g id="Group-36">
            <polygon id="Fill-1" fill="#6CB0FE" points="0.673366834 920.581651 691.673367 920.581651 691.673367 0.581650565 0.673366834 0.581650565"></polygon>
            <g id="Group-8" transform="translate(188.894472, 365.497117)">
                <path d="M222.652387,127.855169 C222.636683,126.104184 221.038693,124.300501 218.815704,123.346274 C216.617211,122.346249 213.796231,122.197563 211.827638,122.651778 C207.710176,123.56899 208.338317,125.426627 209.348995,128.497593 C210.479648,131.513352 211.551884,134.722967 214.280528,134.244285 C215.624749,134.007767 217.627889,133.158311 219.427513,132.084257 C221.200126,130.983853 222.771106,129.661361 222.652387,127.855169" id="Fill-2" fill="#D85143"></path>
                <path d="M198.170854,91.242971 C202.285804,88.4850609 207.146357,87.4179078 211.067839,87.5019751 C215.038945,87.6029814 218.067211,88.8564628 219.638191,91.1469837 C221.22299,93.456953 221.228643,96.5090987 220.576633,99.8956316 C219.882538,103.260834 218.535176,106.96356 216.35804,110.103538 C212.282035,116.402941 204.241206,117.766211 196.905779,112.338223 C189.595477,106.955405 189.579146,96.6860165 198.170854,91.242971" id="Fill-4" fill="#FFFFFF"></path>
                <path d="M59.832098,72.9831093 C53.957098,79.839615 49.6738065,79.2655733 44.4514447,76.9430566 C39.3126256,74.50134 33.2378769,70.311776 25.6995603,67.2119503 C18.1920226,63.8969373 11.8333543,61.5355239 7.20772613,57.0504694 C2.61476131,52.6513644 -0.247047739,46.1279911 0.0425251256,36.448329 C0.472173367,27.0528646 5.23850503,15.8273675 15.278706,8.24625155 C24.9627513,0.716579824 39.9250628,-3.17372966 52.5814698,3.31702053 C65.4935302,9.36108464 71.3534548,24.4248197 71.1687814,38.6359615 C71.2184045,52.9976716 65.2246859,66.5061612 59.832098,72.9831093" id="Fill-6" fill="#FFFFFF"></path>
            </g>
            <g id="Group-32" transform="translate(1.000000, 0.313684)">
                <g id="Group-11" transform="translate(437.175879, 0.000000)" fill="#FFFFFF">
                    <path d="M147.657098,51.0198937 C178.263882,100.26076 255.883857,163.385282 201.306595,195.423715 C176.340515,211.75787 129.871294,219.75054 97.4761935,219.162696 C63.3361181,218.316376 43.2707915,208.888916 30.8304648,184.355687 C7.46928392,135.42976 -24.7700377,44.1796995 33.3593593,14.8006796 C60.9711683,-0.752402542 90.2079774,-2.33337011 106.794033,4.3769589 C124.986872,11.3608204 130.528329,26.638488 147.657098,51.0198937" id="Fill-9"></path>
                </g>
                <g id="Group-17" transform="translate(0.000000, 122.944068)" fill="#D85143">
                    <path d="M0.942273869,62.4536143 C-0.0131281407,39.0797617 9.18285176,32.664923 23.2588568,27.9383319 C37.3882538,23.5912984 56.3989322,20.9362767 76.273304,13.6362217 C96.4692839,6.79916433 112.783982,0.157218442 129.559108,0.602022412 C146.120666,0.945192753 163.142651,8.37134875 179.752575,27.3398227 C195.589259,46.012179 206.398304,75.7764029 200.692274,107.836167 C195.571671,139.173202 173.932224,172.813306 138.282726,182.619697 C102.936621,193.726621 65.0565955,175.262551 40.2142588,147.834019 C14.6545854,120.530332 2.14265075,84.2590468 0.942273869,62.4536143" id="Fill-15"></path>
                </g>
                <g id="Group-20" transform="translate(410.562814, 596.476478)" fill="#FFFFFF">
                    <path d="M129.345917,184.42062 C76.7981784,159.497168 -22.833103,148.207052 5.61036432,91.8919833 C17.7058417,64.7194169 52.4206658,32.9833751 79.9803392,16.0394179 C109.14554,-1.6278947 131.147425,-4.50186789 154.967148,9.42695828 C201.246043,37.9872629 278.040641,97.3519677 245.163128,153.343942 C230.416897,181.285034 206.698304,198.351328 189.097173,201.639364 C170.001068,205.561042 157.022425,195.699443 129.345917,184.42062" id="Fill-18"></path>
                </g>
                <g id="Group-23" transform="translate(423.668997, 467.584960)" fill="#D85143">
                    <path d="M132.228364,2.821874 C173.654229,9.30818037 209.924652,30.9374846 233.723259,54.4112967 C257.713413,78.2812733 269.228914,104.000728 265.708712,127.787637 C262.156586,151.808838 244.532875,171.289766 220.935037,189.08948 C197.166226,206.49871 167.425416,222.227435 135.77978,229.528079 C74.1109811,245.854601 16.4291899,207.50758 2.41932587,129.974352 C-11.7239114,52.8763367 47.5569397,-12.7172884 132.228364,2.821874" id="Fill-21"></path>
                </g>
                <path d="M369.711432,624.242033 C371.102136,627.508739 369.468342,628.979917 366.707035,630.506931 C363.918719,631.984383 360.000377,633.514533 356.134171,635.759884 C352.179397,637.956927 349.03995,639.89173 345.438191,640.847211 C341.894849,641.802693 337.889196,641.777598 333.385427,640.088723 C329.063819,638.387929 325.245352,634.811303 324.832663,629.90403 C324.333291,625.133523 327.235302,619.032996 334.335804,615.475819 C341.302513,611.751762 350.314447,612.08364 357.001005,614.474539 C363.836432,616.813368 368.346482,621.214355 369.711432,624.242033" id="Fill-24" fill="#FFFFFF"></path>
                <g id="Group-28" transform="translate(120.000000, 700.940793)" fill="#FFFFFF">
                    <path d="M147.390641,50.521638 C177.998053,99.7625041 255.617399,162.888908 201.03951,194.925459 C176.074058,211.260242 129.605465,219.252911 97.2103643,218.665067 C63.0690327,217.81812 43.0043342,208.39066 30.5633794,183.858059 C7.20345477,134.932131 -25.036495,43.6833259 33.092902,14.3036786 C60.7053392,-1.25065827 89.940892,-2.83162584 106.527575,3.87933054 C124.719786,10.8625647 130.261872,26.141487 147.390641,50.521638" id="Fill-26"></path>
                </g>
            </g>
            <g id="Group-35" transform="translate(178.125628, 146.470372)">
                <path d="M4.55653266,51.868911 C-1.29020101,46.230754 -0.532663317,42.4314129 1.84798995,37.8905227 C4.33417085,33.4311904 8.4459799,28.23721 11.6582915,21.6692936 C15.0609296,15.1409013 17.5433417,9.58743904 21.8398241,5.70089377 C26.0596734,1.83944322 32.0929648,-0.351326126 40.794598,0.449195547 C49.2292714,1.36076137 59.0697236,6.25046821 65.3385678,15.6540884 C71.5797739,24.7358688 74.2481156,38.3334446 67.6940955,49.2904282 C61.5320352,60.4989863 47.638191,64.8936997 34.8542714,63.929435 C21.9170854,63.1722017 10.0904523,57.0528534 4.55653266,51.868911" id="Fill-33"></path>
            </g>
        </g>
    </g>
</svg>