<?xml version="1.0" encoding="UTF-8"?>
<svg width="24px" height="24px" viewBox="0 0 24 24" version="1.1" xmlns="http://www.w3.org/2000/svg" xmlns:xlink="http://www.w3.org/1999/xlink">
    <title>FeatherIconSet/Feather_Miscellaneous/settings</title>
    <g id="FeatherIconSet/Feather_Miscellaneous/settings" stroke="none" stroke-width="1" fill="none" fill-rule="evenodd" stroke-linecap="round" stroke-linejoin="round">
        <circle id="Oval" stroke="#000000" stroke-width="2" cx="12" cy="12" r="3"></circle>
        <path d="M19.4,15 C19.1276535,15.6170901 19.2583341,16.3378133 19.73,16.82 L19.79,16.88 C20.1655541,17.2551365 20.3765733,17.7641815 20.3765733,18.295 C20.3765733,18.8258185 20.1655541,19.3348635 19.79,19.71 C19.4148635,20.0855541 18.9058185,20.2965733 18.375,20.2965733 C17.8441815,20.2965733 17.3351365,20.0855541 16.96,19.71 L16.9,19.65 C16.4178133,19.1783341 15.6970901,19.0476535 15.08,19.32 C14.4755294,19.5790683 14.0826229,20.1723571 14.08,20.83 L14.08,21 C14.08,22.1045695 13.1845695,23 12.08,23 C10.9754305,23 10.08,22.1045695 10.08,21 L10.08,20.91 C10.0641566,20.2326708 9.63587177,19.6338652 9,19.4 C8.38290993,19.1276535 7.66218673,19.2583341 7.18,19.73 L7.12,19.79 C6.74486349,20.1655541 6.2358185,20.3765733 5.705,20.3765733 C5.1741815,20.3765733 4.66513651,20.1655541 4.29,19.79 C3.91444591,19.4148635 3.70342669,18.9058185 3.70342669,18.375 C3.70342669,17.8441815 3.91444591,17.3351365 4.29,16.96 L4.35,16.9 C4.82166588,16.4178133 4.95234646,15.6970901 4.68,15.08 C4.42093172,14.4755294 3.82764292,14.0826229 3.17,14.08 L3,14.08 C1.8954305,14.08 1,13.1845695 1,12.08 C1,10.9754305 1.8954305,10.08 3,10.08 L3.09,10.08 C3.76732918,10.0641566 4.36613483,9.63587177 4.6,9 C4.87234646,8.38290993 4.74166588,7.66218673 4.27,7.18 L4.21,7.12 C3.83444591,6.74486349 3.62342669,6.2358185 3.62342669,5.705 C3.62342669,5.1741815 3.83444591,4.66513651 4.21,4.29 C4.58513651,3.91444591 5.0941815,3.70342669 5.625,3.70342669 C6.1558185,3.70342669 6.66486349,3.91444591 7.04,4.29 L7.1,4.35 C7.58218673,4.82166588 8.30290993,4.95234646 8.92,4.68 L9,4.68 C9.60447061,4.42093172 9.99737709,3.82764292 10,3.17 L10,3 C10,1.8954305 10.8954305,1 12,1 C13.1045695,1 14,1.8954305 14,3 L14,3.09 C14.0026229,3.74764292 14.3955294,4.34093172 15,4.6 C15.6170901,4.87234646 16.3378133,4.74166588 16.82,4.27 L16.88,4.21 C17.2551365,3.83444591 17.7641815,3.62342669 18.295,3.62342669 C18.8258185,3.62342669 19.3348635,3.83444591 19.71,4.21 C20.0855541,4.58513651 20.2965733,5.0941815 20.2965733,5.625 C20.2965733,6.1558185 20.0855541,6.66486349 19.71,7.04 L19.65,7.1 C19.1783341,7.58218673 19.0476535,8.30290993 19.32,8.92 L19.32,9 C19.5790683,9.60447061 20.1723571,9.99737709 20.83,10 L21,10 C22.1045695,10 23,10.8954305 23,12 C23,13.1045695 22.1045695,14 21,14 L20.91,14 C20.2523571,14.0026229 19.6590683,14.3955294 19.4,15 Z" id="Path" stroke="#000000" stroke-width="2"></path>
    </g>
</svg>