<?xml version="1.0" encoding="UTF-8"?>
<svg width="24px" height="24px" viewBox="0 0 24 24" version="1.1" xmlns="http://www.w3.org/2000/svg" xmlns:xlink="http://www.w3.org/1999/xlink">
    <title>Feather_qr code</title>
    <g id="Feather_qr-code" stroke="none" stroke-width="1" fill="none" fill-rule="evenodd">
        <g id="Group-8-Copy" transform="translate(1.000000, 1.000000)">
            <path d="M22,5 L20,5 L20,2 L17,2 L17,2.84217094e-13 L22,2.84217094e-13 L22,5 Z" id="Combined-Shape" fill="#000000"></path>
            <path d="M5,22 L3,22 L3,19 L2.27373675e-13,19 L2.27373675e-13,17 L5,17 L5,22 Z" id="Combined-Shape-Copy-2" fill="#000000" transform="translate(2.500000, 19.500000) rotate(-180.000000) translate(-2.500000, -19.500000) "></path>
            <path d="M5,5 L3,5 L3,2 L0,2 L0,0 L5,0 L5,5 Z" id="Combined-Shape-Copy" fill="#000000" transform="translate(2.500000, 2.500000) rotate(-90.000000) translate(-2.500000, -2.500000) "></path>
            <path d="M22,22 L20,22 L20,19 L17,19 L17,17 L22,17 L22,22 Z" id="Combined-Shape-Copy-3" fill="#000000" transform="translate(19.500000, 19.500000) rotate(-270.000000) translate(-19.500000, -19.500000) "></path>
            <rect id="Rectangle" stroke="#000000" x="5.5" y="5.5" width="4" height="4"></rect>
            <rect id="Rectangle-Copy-6" stroke="#000000" x="5.5" y="12.5" width="4" height="4"></rect>
            <rect id="Rectangle-Copy-5" stroke="#000000" x="12.5" y="5.5" width="4" height="4"></rect>
            <path d="M13.6666667,15.3333333 L13.6666667,17 L12,17 L12,15.3333333 L13.6666667,15.3333333 Z M17,15.3333333 L17,17 L15.3333333,17 L15.3333333,15.3333333 L17,15.3333333 Z M15.3333333,13.6666667 L15.3333333,15.3333333 L13.6666667,15.3333333 L13.6666667,13.6666667 L15.3333333,13.6666667 Z M13.6666667,12 L13.6666667,13.6666667 L12,13.6666667 L12,12 L13.6666667,12 Z M17,12 L17,13.6666667 L15.3333333,13.6666667 L15.3333333,12 L17,12 Z" id="Combined-Shape" fill="#000000"></path>
        </g>
    </g>
</svg>