<?xml version="1.0" encoding="UTF-8"?>
<svg width="375px" height="812px" viewBox="0 0 375 812" version="1.1" xmlns="http://www.w3.org/2000/svg" xmlns:xlink="http://www.w3.org/1999/xlink">
    <title>Start</title>
    <defs>
        <rect id="path-1" x="0" y="0" width="375" height="812"></rect>
    </defs>
    <g id="Start" stroke="none" stroke-width="1" fill="none" fill-rule="evenodd">
        <g id="Background">
            <mask id="mask-2" fill="white">
                <use xlink:href="#path-1"></use>
            </mask>
            <g id="Mask"></g>
            <g mask="url(#mask-2)" id="Group-36">
                <g transform="translate(-151.000000, -53.933579)">
                    <polygon id="Fill-1" fill="#6CB0FE" points="147.673367 946.48325 528.673367 946.48325 528.673367 54.5816506 147.673367 54.5816506"></polygon>
                    <g id="Group-8" transform="translate(187.894472, 365.497117)">
                        <path d="M222.652387,127.855169 C222.636683,126.104184 221.038693,124.300501 218.815704,123.346274 C216.617211,122.346249 213.796231,122.197563 211.827638,122.651778 C207.710176,123.56899 208.338317,125.426627 209.348995,128.497593 C210.479648,131.513352 211.551884,134.722967 214.280528,134.244285 C215.624749,134.007767 217.627889,133.158311 219.427513,132.084257 C221.200126,130.983853 222.771106,129.661361 222.652387,127.855169" id="Fill-2" fill="#D85143"></path>
                        <path d="M198.170854,91.242971 C202.285804,88.4850609 207.146357,87.4179078 211.067839,87.5019751 C215.038945,87.6029814 218.067211,88.8564628 219.638191,91.1469837 C221.22299,93.456953 221.228643,96.5090987 220.576633,99.8956316 C219.882538,103.260834 218.535176,106.96356 216.35804,110.103538 C212.282035,116.402941 204.241206,117.766211 196.905779,112.338223 C189.595477,106.955405 189.579146,96.6860165 198.170854,91.242971" id="Fill-4" fill="#FFFFFF"></path>
                        <path d="M59.832098,72.9831093 C53.957098,79.839615 49.6738065,79.2655733 44.4514447,76.9430566 C39.3126256,74.50134 33.2378769,70.311776 25.6995603,67.2119503 C18.1920226,63.8969373 11.8333543,61.5355239 7.20772613,57.0504694 C2.61476131,52.6513644 -0.247047739,46.1279911 0.0425251256,36.448329 C0.472173367,27.0528646 5.23850503,15.8273675 15.278706,8.24625155 C24.9627513,0.716579824 39.9250628,-3.17372966 52.5814698,3.31702053 C65.4935302,9.36108464 71.3534548,24.4248197 71.1687814,38.6359615 C71.2184045,52.9976716 65.2246859,66.5061612 59.832098,72.9831093" id="Fill-6" fill="#FFFFFF"></path>
                    </g>
                    <g id="Group-32" transform="translate(0.000000, 0.313684)">
                        <g id="Group-11" transform="translate(437.175879, 0.000000)" fill="#FFFFFF">
                            <path d="M147.657098,51.0198937 C178.263882,100.26076 255.883857,163.385282 201.306595,195.423715 C176.340515,211.75787 129.871294,219.75054 97.4761935,219.162696 C63.3361181,218.316376 43.2707915,208.888916 30.8304648,184.355687 C7.46928392,135.42976 -24.7700377,44.1796995 33.3593593,14.8006796 C60.9711683,-0.752402542 90.2079774,-2.33337011 106.794033,4.3769589 C124.986872,11.3608204 130.528329,26.638488 147.657098,51.0198937" id="Fill-9"></path>
                        </g>
                        <g id="Group-17" transform="translate(0.000000, 122.944068)" fill="#D85143">
                            <path d="M0.942273869,62.4536143 C-0.0131281407,39.0797617 9.18285176,32.664923 23.2588568,27.9383319 C37.3882538,23.5912984 56.3989322,20.9362767 76.273304,13.6362217 C96.4692839,6.79916433 112.783982,0.157218442 129.559108,0.602022412 C146.120666,0.945192753 163.142651,8.37134875 179.752575,27.3398227 C195.589259,46.012179 206.398304,75.7764029 200.692274,107.836167 C195.571671,139.173202 173.932224,172.813306 138.282726,182.619697 C102.936621,193.726621 65.0565955,175.262551 40.2142588,147.834019 C14.6545854,120.530332 2.14265075,84.2590468 0.942273869,62.4536143" id="Fill-15"></path>
                        </g>
                        <g id="Group-20" transform="translate(410.562814, 596.476478)" fill="#FFFFFF">
                            <path d="M129.345917,184.42062 C76.7981784,159.497168 -22.833103,148.207052 5.61036432,91.8919833 C17.7058417,64.7194169 52.4206658,32.9833751 79.9803392,16.0394179 C109.14554,-1.6278947 131.147425,-4.50186789 154.967148,9.42695828 C201.246043,37.9872629 278.040641,97.3519677 245.163128,153.343942 C230.416897,181.285034 206.698304,198.351328 189.097173,201.639364 C170.001068,205.561042 157.022425,195.699443 129.345917,184.42062" id="Fill-18"></path>
                        </g>
                        <g id="Group-23" transform="translate(423.668997, 467.584960)" fill="#D85143">
                            <path d="M132.228364,2.821874 C173.654229,9.30818037 209.924652,30.9374846 233.723259,54.4112967 C257.713413,78.2812733 269.228914,104.000728 265.708712,127.787637 C262.156586,151.808838 244.532875,171.289766 220.935037,189.08948 C197.166226,206.49871 167.425416,222.227435 135.77978,229.528079 C74.1109811,245.854601 16.4291899,207.50758 2.41932587,129.974352 C-11.7239114,52.8763367 47.5569397,-12.7172884 132.228364,2.821874" id="Fill-21"></path>
                        </g>
                        <path d="M369.711432,624.242033 C371.102136,627.508739 369.468342,628.979917 366.707035,630.506931 C363.918719,631.984383 360.000377,633.514533 356.134171,635.759884 C352.179397,637.956927 349.03995,639.89173 345.438191,640.847211 C341.894849,641.802693 337.889196,641.777598 333.385427,640.088723 C329.063819,638.387929 325.245352,634.811303 324.832663,629.90403 C324.333291,625.133523 327.235302,619.032996 334.335804,615.475819 C341.302513,611.751762 350.314447,612.08364 357.001005,614.474539 C363.836432,616.813368 368.346482,621.214355 369.711432,624.242033" id="Fill-24" fill="#FFFFFF"></path>
                        <g id="Group-28" transform="translate(120.000000, 700.940793)" fill="#FFFFFF">
                            <path d="M147.390641,50.521638 C177.998053,99.7625041 255.617399,162.888908 201.03951,194.925459 C176.074058,211.260242 129.605465,219.252911 97.2103643,218.665067 C63.0690327,217.81812 43.0043342,208.39066 30.5633794,183.858059 C7.20345477,134.932131 -25.036495,43.6833259 33.092902,14.3036786 C60.7053392,-1.25065827 89.940892,-2.83162584 106.527575,3.87933054 C124.719786,10.8625647 130.261872,26.141487 147.390641,50.521638" id="Fill-26"></path>
                        </g>
                    </g>
                    <g id="Group-35" transform="translate(177.125628, 146.470372)">
                        <path d="M4.55653266,51.868911 C-1.29020101,46.230754 -0.532663317,42.4314129 1.84798995,37.8905227 C4.33417085,33.4311904 8.4459799,28.23721 11.6582915,21.6692936 C15.0609296,15.1409013 17.5433417,9.58743904 21.8398241,5.70089377 C26.0596734,1.83944322 32.0929648,-0.351326126 40.794598,0.449195547 C49.2292714,1.36076137 59.0697236,6.25046821 65.3385678,15.6540884 C71.5797739,24.7358688 74.2481156,38.3334446 67.6940955,49.2904282 C61.5320352,60.4989863 47.638191,64.8936997 34.8542714,63.929435 C21.9170854,63.1722017 10.0904523,57.0528534 4.55653266,51.868911" id="Fill-33"></path>
                    </g>
                </g>
            </g>
        </g>
        <g id="Logo" transform="translate(113.000000, 134.000000)" fill="#FFFFFF">
            <g id="Group-2" transform="translate(27.669903, 0.000000)">
                <path d="M70.8474733,23.5593841 C70.8474733,10.5478657 60.2919766,0 47.2711458,0 L46.3233984,0 L45.375651,0 C32.3548202,0 21.7992226,10.5478657 21.7992226,23.5593841 L29.1541544,23.5593841 C28.8936046,21.2938764 30.0448876,17.2869116 30.7049404,16.3418661 C33.3769383,10.940828 38.9494955,7.21751803 45.375651,7.21751803 L46.3233984,7.21751803 L47.2711458,7.21751803 C53.6974022,7.21751803 59.2699594,10.940828 61.9418564,16.3418661 C62.6019092,17.2869116 63.7531922,21.2938764 63.4926424,23.5593841 L70.8474733,23.5593841 Z" id="Fill-1"></path>
                <path d="M84.7596411,74.4686184 C84.7596411,86.3685983 74.9280733,96.0497967 62.8433635,96.0497967 L62.8433635,96.0497967 L27.9868018,96.0497967 C15.902092,96.0497967 6.07052423,86.3685983 6.07052423,74.4686184 L6.07052423,74.4686184 L6.07052423,36.2856538 C6.07052423,29.3589466 1.42108547e-14,27.1839047 1.42108547e-14,27.1839047 L1.42108547e-14,27.1839047 L24.6788113,27.1839047 C52.7178767,30.5351004 41.4831381,72.8958989 59.6087255,57.6751203 C55.4971184,65.6168672 50.419297,71.1681847 43.862813,73.0610259 C37.8709307,74.5734891 34.6395142,65.9510833 31.5824441,57.2917279 L31.0545801,55.7945633 C28.4189986,48.3262864 25.8022495,41.2666211 21.5283247,41.1598102 L21.5283247,41.1598102 L21.5283247,83.2326897 C15.1588894,83.2326897 9.69097567,79.4381792 7.32403563,74.0204881 L7.32403563,74.0204881 L7.32403563,74.4686184 C7.32403563,85.6879259 16.5933368,94.8154572 27.9868018,94.8154572 L27.9868018,94.8154572 L62.8433635,94.8154572 C74.2368286,94.8154572 83.5061297,85.6879259 83.5061297,74.4686184 L83.5061297,74.4686184 L83.5074738,74.0223436 C81.1403102,79.4396306 75.6709309,83.2326897 69.3017693,83.2326897 L69.3017693,83.2326897 L69.3017693,41.1598102 C65.2199107,41.2618358 62.6497233,47.7064042 60.1309845,54.7913164 C51.2271211,61.8567665 49.7741319,54.1835767 46.6056129,44.6738255 C49.6176467,36.7289687 54.4826442,28.5785559 66.1512827,27.1839047 L66.1512827,27.1839047 L90.830094,27.1839047 C90.830094,27.1839047 84.7595698,29.3589466 84.7595698,36.2856538 L84.7595698,36.2856538 Z" id="Combined-Shape"></path>
            </g>
            <path d="M7.11070388,153.482554 L7.11070388,132.267253 C7.11070388,132.267253 8.38047243,134.440527 10.0565669,136.872525 L17.2688523,147.324942 L24.4303469,136.92427 C26.1572321,134.388783 27.4270007,132.267253 27.4270007,132.267253 L27.4270007,153.482554 L34.5377046,153.482554 L34.5377046,119.952029 L28.3920248,119.952029 L23.2113691,127.455001 C21.3321116,130.197467 17.2688523,136.096356 17.2688523,136.096356 L17.2492127,136.067238 C17.0548896,135.779172 15.4497676,133.400675 13.8326008,131.033658 L13.5094213,130.56103 C12.7031432,129.382958 11.9171666,128.242787 11.3263355,127.403257 L6.14567978,119.952029 L0,119.952029 L0,153.482554 L7.11070388,153.482554 Z M51.7079631,154 C54.6538262,154 57.8536429,152.861618 59.6313189,150.377875 L59.6313189,153.482554 L66.2849061,153.482554 L66.2849061,127.610235 L59.6313189,127.610235 L59.6313189,130.766658 C57.8028522,128.282915 54.6538262,127.092789 51.7079631,127.092789 C44.6988407,127.092789 40.2292554,133.095167 40.2292554,140.546394 C40.2292554,147.997622 44.6988407,154 51.7079631,154 Z M53.4348484,147.583665 C49.7779149,147.583665 47.1367964,144.634221 47.1367964,140.546394 C47.1367964,136.510313 49.7779149,133.509124 53.4348484,133.509124 C56.9394096,133.509124 59.4789467,136.510313 59.4789467,140.546394 C59.4789467,144.685965 56.9394096,147.583665 53.4348484,147.583665 Z M78.8839979,153.482554 L78.8839979,143.547583 C78.8839979,137.389972 81.7790702,134.647506 87.6707963,134.647506 L87.6707963,127.092789 C82.0838146,127.092789 79.4934868,130.45619 78.7824164,132.57772 L78.7824164,127.610235 L72.0780385,127.610235 L72.0780385,153.482554 L78.8839979,153.482554 Z M95.3431861,124.453812 C97.5779787,124.453812 99.4064454,122.591005 99.4064454,120.365986 C99.4064454,118.089222 97.5779787,116.226415 95.3431861,116.226415 C93.1591842,116.226415 91.3307174,118.089222 91.3307174,120.365986 C91.3307174,122.591005 93.1591842,124.453812 95.3431861,124.453812 Z M98.7969565,153.482554 L98.7969565,127.610235 L91.9909971,127.610235 L91.9909971,153.482554 L98.7969565,153.482554 Z M117.744891,154 C121.046289,154 124.347688,153.068597 127.191969,151.154045 L124.652432,146.18656 C122.773175,147.480176 120.233637,148.204601 117.795682,148.204601 C114.443493,148.204601 111.548421,146.497028 110.735769,142.926648 L129.172808,142.926648 C129.172808,142.926648 129.32518,141.684776 129.32518,140.442905 C129.32518,133.095167 123.890571,127.092789 116.98303,127.092789 C109.516791,127.092789 103.828228,133.095167 103.828228,140.546394 C103.828228,149.084259 110.329443,154 117.744891,154 Z M122.925547,138.321375 L110.634187,138.321375 C111.294467,135.061463 113.834004,132.888188 116.779867,132.888188 C119.878102,132.888188 122.417639,135.061463 122.925547,138.321375 Z M141.213202,153.482554 L141.213202,143.547583 C141.213202,137.389972 144.108274,134.647506 150,134.647506 L150,127.092789 C144.413018,127.092789 141.822691,130.45619 141.11162,132.57772 L141.11162,127.610235 L134.407242,127.610235 L134.407242,153.482554 L141.213202,153.482554 Z" id="Marier" fill-rule="nonzero"></path>
        </g>
    </g>
</svg>