<?xml version="1.0" encoding="UTF-8"?>
<svg width="48px" height="15px" viewBox="0 0 48 15" version="1.1" xmlns="http://www.w3.org/2000/svg" xmlns:xlink="http://www.w3.org/1999/xlink">
    <title>Brand/Card Brands Visa</title>
    <g id="Symbols" stroke="none" stroke-width="1" fill="none" fill-rule="evenodd">
        <g id="Card" transform="translate(-207.000000, -121.000000)" fill="#FFFFFF" fill-rule="nonzero">
            <g id="Group" transform="translate(165.000000, 114.000000)">
                <g id="Visa-Logo-Copy" transform="translate(42.000000, 7.000000)">
                    <path d="M44.688,0.26 L41.684,0.26 C40.751,0.26 40.057,0.514 39.647,1.444 L33.874,14.518 L37.957,14.518 C37.957,14.518 38.623,12.76 38.774,12.375 C39.221,12.375 43.188,12.381 43.753,12.381 C43.869,12.879 44.227,14.518 44.227,14.518 L47.834,14.518 L44.688,0.26 Z M39.893,9.456 C40.213,8.637 41.442,5.469 41.442,5.469 C41.421,5.508 41.759,4.644 41.96,4.107 L42.222,5.337 C42.222,5.337 42.967,8.743 43.123,9.456 L39.893,9.456 Z M34.146,9.85 C34.118,12.813 31.462,14.725 27.375,14.725 C25.632,14.707 23.953,14.364 23.043,13.965 L23.59,10.772 L24.091,11 C25.368,11.532 26.195,11.747 27.752,11.747 C28.869,11.747 30.065,11.309 30.077,10.354 C30.084,9.729 29.576,9.284 28.061,8.584 C26.585,7.901 24.631,6.757 24.656,4.708 C24.677,1.935 27.385,0 31.227,0 C32.733,0 33.94,0.31 34.71,0.599 L34.184,3.691 L33.833,3.526 C33.117,3.238 32.195,2.96 30.923,2.98 C29.401,2.98 28.695,3.614 28.695,4.207 C28.687,4.875 29.519,5.315 30.879,5.977 C33.126,6.992 34.163,8.229 34.146,9.85 Z M0,0.408 L0.05,0.122 L6.078,0.122 C6.891,0.153 7.546,0.412 7.772,1.281 L9.083,7.585 C7.795,4.288 4.691,1.545 0,0.408 Z M17.581,0.258 L11.458,14.497 L7.344,14.504 L3.862,2.607 C6.365,4.209 8.497,6.751 9.248,8.521 L9.654,9.99 L13.462,0.261 L17.581,0.258 L17.581,0.258 Z M19.153,0.246 L23.043,0.246 L20.61,14.512 L16.722,14.512 L19.153,0.246 Z" id="Shape"></path>
                </g>
            </g>
        </g>
    </g>
</svg>